<svg xmlns="http://www.w3.org/2000/svg" viewBox="0 0 100 100">
  <!-- Background -->
  <rect width="100" height="100" fill="#FFFFFF" />
  
  <!-- Top Blue Stripe -->
  <rect y="10" width="100" height="20" fill="#41B6E6" />
  
  <!-- Bottom Blue Stripe -->
  <rect y="70" width="100" height="20" fill="#41B6E6" />
  
  <!-- Beer Mug - styled like the reference image -->
  <g transform="translate(32, 32) scale(0.36)">
    <!-- Main mug body -->
    <path d="M80,20 C80,20 80,85 80,85 C80,92 74,98 67,98 L33,98 C26,98 20,92 20,85 L20,20 Z" fill="#EF002B" />
    
    <!-- Mug handle -->
    <path d="M80,30 C88,30 95,37 95,45 L95,60 C95,68 88,75 80,75" fill="#EF002B" stroke="#EF002B" stroke-width="2" />
    
    <!-- Mug rim -->
    <path d="M20,20 L80,20 C80,12 60,5 50,5 C40,5 20,12 20,20 Z" fill="#EF002B" />
    
    <!-- Foam at top -->
    <path d="M25,18 C28,14 32,15 35,18 C38,15 42,14 45,18 C48,14 52,15 55,18 C58,15 62,14 65,18 C68,15 72,14 75,18" fill="none" stroke="#FFFFFF" stroke-width="4" stroke-linecap="round" />
    
    <!-- Beer lines -->
    <line x1="30" y1="30" x2="30" y2="85" stroke="#FFFFFF" stroke-width="4" stroke-linecap="round" />
    <line x1="45" y1="30" x2="45" y2="85" stroke="#FFFFFF" stroke-width="4" stroke-linecap="round" />
    <line x1="60" y1="30" x2="60" y2="85" stroke="#FFFFFF" stroke-width="4" stroke-linecap="round" />
    <line x1="75" y1="30" x2="75" y2="85" stroke="#FFFFFF" stroke-width="4" stroke-linecap="round" />
  </g>
</svg>