<svg xmlns="http://www.w3.org/2000/svg" viewBox="0 0 800 200">
  <!-- Background -->
  <rect width="800" height="200" fill="#FFFFFF" />
  
  <!-- Top Blue Stripe -->
  <rect y="20" width="800" height="40" fill="#41B6E6" />
  
  <!-- Bottom Blue Stripe -->
  <rect y="140" width="800" height="40" fill="#41B6E6" />
  
  <!-- Beer Mug on the left -->
  <g transform="translate(80, 50) scale(0.5)">
    <!-- Main mug body -->
    <path d="M80,20 C80,20 80,85 80,85 C80,92 74,98 67,98 L33,98 C26,98 20,92 20,85 L20,20 Z" fill="#EF002B" />
    
    <!-- Mug handle -->
    <path d="M80,30 C88,30 95,37 95,45 L95,60 C95,68 88,75 80,75" fill="#EF002B" stroke="#EF002B" stroke-width="2" />
    
    <!-- Mug rim -->
    <path d="M20,20 L80,20 C80,12 60,5 50,5 C40,5 20,12 20,20 Z" fill="#EF002B" />
    
    <!-- Foam at top -->
    <path d="M25,18 C28,14 32,15 35,18 C38,15 42,14 45,18 C48,14 52,15 55,18 C58,15 62,14 65,18 C68,15 72,14 75,18" fill="none" stroke="#FFFFFF" stroke-width="4" stroke-linecap="round" />
    
    <!-- Beer lines -->
    <line x1="30" y1="30" x2="30" y2="85" stroke="#FFFFFF" stroke-width="4" stroke-linecap="round" />
    <line x1="45" y1="30" x2="45" y2="85" stroke="#FFFFFF" stroke-width="4" stroke-linecap="round" />
    <line x1="60" y1="30" x2="60" y2="85" stroke="#FFFFFF" stroke-width="4" stroke-linecap="round" />
    <line x1="75" y1="30" x2="75" y2="85" stroke="#FFFFFF" stroke-width="4" stroke-linecap="round" />
  </g>
  
  <!-- Text on the right -->
  <text x="180" y="110" font-family="Arial, sans-serif" font-size="48" font-weight="bold" fill="#EF002B">Chicago Beer Finder</text>
  
  <!-- Tag line -->
  <text x="180" y="140" font-family="Arial, sans-serif" font-size="18" fill="#333333">Discover the best brews in the Windy City</text>
</svg>